<?xml version="1.0" encoding="utf-8"?>
<!-- Generator: Adobe Illustrator 27.0.0, SVG Export Plug-In . SVG Version: 6.00 Build 0)  -->
<svg version="1.1" id="Layer_2_00000174571169406206219590000013721461039764455559_"
	 xmlns="http://www.w3.org/2000/svg" xmlns:xlink="http://www.w3.org/1999/xlink" x="0px" y="0px" viewBox="0 0 632.1 116"
	 style="enable-background:new 0 0 632.1 116;" xml:space="preserve">
<style type="text/css">
	.st0{fill:#003049;}
	.st1{fill:#780000;}
</style>
<g id="Layer_1-2">
	<g>
		<g>
			<path class="st0" d="M101.2,116c-4.2,0-8.2-1.6-11.1-4.6s-4.6-6.9-4.6-11.1s1.6-8.2,4.6-11.1c3-3,6.9-4.6,11.1-4.6
				s8.2,1.6,11.1,4.6c6.1,6.1,6.1,16.1,0,22.2C109.3,114.4,105.4,116,101.2,116L101.2,116z"/>
			<path class="st0" d="M15.7,32.2c-4.2,0-8.1-1.6-11.1-4.6c-3-3-4.6-6.9-4.6-11.1S1.6,8.3,4.6,5.3c3-3,6.9-4.6,11.1-4.6
				s8.1,1.6,11.1,4.6c3,3,4.6,6.9,4.6,11.1s-1.6,8.1-4.6,11.1S19.9,32.2,15.7,32.2L15.7,32.2z"/>
			<path class="st1" d="M100.4,31.7c-4.2,0-8.2-1.6-11.1-4.6c-6.1-6.1-6.1-16.1,0-22.2c3-3,6.9-4.6,11.1-4.6s8.2,1.6,11.1,4.6
				c6.1,6.1,6.1,16.1,0,22.2C108.6,30.1,104.7,31.7,100.4,31.7L100.4,31.7z"/>
			<path class="st1" d="M16.1,116c-4.2,0-8.1-1.6-11.1-4.6c-3-3-4.6-6.9-4.6-11.1c0-4.2,1.6-8.2,4.6-11.1c0.6-0.6,1.3-1.2,2.2-1.8
				C7.5,87.2,7.7,87,8,86.9c0.6-0.3,1.2-0.6,1.7-0.9c0.3-0.1,0.6-0.3,0.9-0.4c0.6-0.2,1.2-0.4,1.9-0.6c0.1,0,0.3-0.1,0.4-0.1
				c0.1,0,0.2-0.1,0.2-0.1l3.5-0.2c0.4,0,0.9,0.1,1.4,0.1l0.2,0c0.1,0,0.3,0,0.4,0h0.1l0.2,0h0.1c0.3,0,0.5,0,0.8,0
				c6,0,12-2.6,16.3-7.1c4.3-4.5,6.7-10.5,6.5-16.5v-0.2l0-0.2c0-0.2,0-0.3,0-0.5c0-0.2,0-0.4-0.1-0.6l0-0.3c0-0.3-0.1-0.6-0.1-0.9
				l0.3-3.5c0-0.1,0-0.2,0.1-0.2l0.1-0.2c0.2-0.7,0.3-1.3,0.6-2c0.1-0.4,0.2-0.6,0.4-0.9c0.3-0.6,0.6-1.2,0.9-1.7
				c0.2-0.2,0.3-0.5,0.5-0.7c0.6-0.9,1.2-1.6,1.8-2.2c3-3,6.9-4.6,11.1-4.6s8.2,1.6,11.1,4.6c6.1,6.1,6.1,16.1,0,22.2
				c-0.6,0.6-1.3,1.2-2.2,1.8c-0.3,0.2-0.5,0.3-0.8,0.5c-0.6,0.3-1.1,0.6-1.7,0.9c-0.3,0.1-0.6,0.3-0.9,0.4
				c-0.6,0.2-1.2,0.4-1.9,0.6l-0.4,0.1c-0.1,0-0.2,0.1-0.2,0.1l-3.5,0.2c-0.4,0-0.8-0.1-1.3-0.1l-0.3,0c-0.1,0-0.3,0-0.4,0h-0.1
				l-0.2-0.1h-0.1c-0.3,0-0.5,0-0.8,0c-6,0-12,2.6-16.3,7c-4.3,4.5-6.7,10.5-6.5,16.5v0.2l0,0.2c0,0.2,0,0.3,0,0.5
				c0,0.2,0,0.4,0.1,0.6c0,0.1,0,0.3,0.1,0.6c0,0.2,0.1,0.5,0.1,0.7v0.1l-0.2,3.4c0,0.1-0.1,0.5-0.2,0.6c-0.2,0.7-0.4,1.4-0.6,1.9
				c-0.1,0.3-0.2,0.6-0.4,0.9c-0.3,0.6-0.6,1.2-0.9,1.8c-0.1,0.2-0.3,0.5-0.5,0.8c-0.6,0.8-1.2,1.6-1.8,2.2
				C24.3,114.4,20.3,116,16.1,116C16.1,116,16.1,116,16.1,116z"/>
			<path class="st1" d="M58.6,116c-4.2,0-8.2-1.6-11.1-4.6s-4.6-6.9-4.6-11.1c0-4.2,1.6-8.1,4.6-11.1c0.6-0.6,1.3-1.2,2.2-1.8
				c0.2-0.2,0.5-0.3,0.8-0.5c0.6-0.3,1.1-0.6,1.7-0.9c0.3-0.1,0.6-0.3,0.9-0.4c0.6-0.2,1.2-0.4,1.9-0.6c0,0,0.5-0.2,0.6-0.2l3.6-0.3
				c0.4,0,0.9,0.1,1.3,0.1l0.3,0c0.2,0,0.3,0,0.5,0c0.1,0,0.1,0,0.2,0h0.1l0.2,0c0.3,0,0.5,0,0.8,0c6,0,12-2.6,16.3-7
				c4.3-4.5,6.7-10.5,6.6-16.5l0-0.7l-0.1-0.1c0,0,0,0,0-0.1c0-0.2,0-0.3,0-0.5l-0.1-0.5c0-0.3-0.1-0.5-0.1-0.8l0.2-3.4
				c0-0.1,0.1-0.5,0.2-0.6c0.2-0.8,0.4-1.4,0.6-1.9c0.1-0.3,0.2-0.6,0.4-0.9c0.2-0.5,0.6-1.1,0.9-1.7l0.1-0.1
				c0.1-0.2,0.2-0.4,0.4-0.6c0.6-0.9,1.2-1.6,1.8-2.2c3-3,6.9-4.6,11.1-4.6s8.2,1.6,11.1,4.6c6.1,6.1,6.1,16.1,0,22.3
				c-0.6,0.6-1.3,1.2-2.2,1.8c-0.2,0.1-0.3,0.2-0.5,0.3l-0.3,0.2c-0.5,0.3-1.1,0.6-1.7,0.9c-0.3,0.1-0.6,0.3-0.9,0.4
				c-0.6,0.2-1.2,0.4-1.9,0.6c-0.2,0-0.3,0.1-0.4,0.1c-0.1,0-0.2,0.1-0.2,0.1l-3.5,0.2c-0.5,0-1.1-0.1-1.6-0.2c-0.2,0-0.3,0-0.5,0
				c-0.1,0-0.1,0-0.2,0l-0.3,0c-0.3,0-0.5,0-0.8,0c-6,0-12,2.6-16.3,7c-4.3,4.5-6.7,10.5-6.5,16.5v0.2l0,0.2c0,0.2,0,0.4,0.1,0.5
				c0,0.2,0,0.4,0.1,0.5c0,0.2,0,0.3,0.1,0.5c0,0.3,0.1,0.5,0.1,0.8l-0.3,3.4c0,0.1-0.2,0.5-0.2,0.5c-0.2,0.7-0.4,1.4-0.6,2
				c-0.1,0.3-0.2,0.6-0.4,0.8l0,0.1c-0.3,0.6-0.6,1.1-0.9,1.7c-0.2,0.3-0.3,0.5-0.5,0.8c-0.6,0.9-1.2,1.6-1.8,2.2
				C66.7,114.4,62.8,116,58.6,116L58.6,116L58.6,116z"/>
			<path class="st1" d="M16.1,73.6C11.9,73.6,8,71.9,5,69s-4.6-6.9-4.6-11.1c0-4.2,1.6-8.1,4.6-11.1c0.6-0.6,1.3-1.2,2.2-1.8
				c0.2-0.2,0.5-0.3,0.8-0.5c0.5-0.3,1.1-0.6,1.7-0.9c0.3-0.1,0.6-0.3,0.9-0.4c0.6-0.2,1.2-0.4,1.9-0.5l0.4-0.1c0.1,0,0.1,0,0.2-0.1
				l3.6-0.3c0.5,0,1,0.1,1.5,0.2h0.1c0.2,0,0.3,0,0.5,0c0,0,0.1,0,0.1,0l0.1,0h0.1c0.3,0,0.5,0,0.8,0c6,0,12-2.6,16.3-7
				c4.3-4.5,6.7-10.5,6.5-16.5v-0.2l0-0.2c0-0.2,0-0.4,0-0.6c0-0.2,0-0.3,0-0.5l0-0.5c0-0.3-0.1-0.6-0.1-0.9l0.2-3.3l0-0.1v-0.1
				c0-0.1,0.2-0.5,0.2-0.5c0.2-0.9,0.4-1.5,0.6-2c0.1-0.3,0.2-0.6,0.4-0.9c0.3-0.6,0.6-1.1,0.9-1.7l0-0.1c0.1-0.2,0.3-0.4,0.4-0.7
				c0.6-0.9,1.2-1.6,1.8-2.2c3-3,6.9-4.6,11.1-4.6s8.2,1.6,11.1,4.6c6.1,6.1,6.1,16.1,0,22.2c-0.6,0.6-1.3,1.2-2.2,1.8
				c-0.2,0.2-0.4,0.3-0.7,0.4l-0.1,0.1c-0.6,0.3-1.2,0.6-1.7,0.9c-0.3,0.1-0.6,0.3-0.9,0.4c-0.6,0.2-1.2,0.4-1.9,0.6
				c-0.2,0-0.3,0.1-0.4,0.1c-0.1,0-0.2,0-0.2,0.1l-3.5,0.2c-0.4,0-0.9-0.1-1.4-0.1l-0.2,0c-0.2,0-0.3,0-0.5,0c-0.1,0-0.1,0-0.2,0
				h-0.1l-0.2,0c-0.3,0-0.5,0-0.8,0c-6,0-12,2.6-16.3,7c-4.3,4.5-6.7,10.5-6.5,16.5v0.2l0,0.2c0,0.2,0,0.4,0.1,0.5
				c0,0.2,0,0.4,0,0.5c0,0.2,0,0.3,0.1,0.5c0,0.3,0.1,0.5,0.1,0.8l-0.2,3.4c0,0.1,0,0.2-0.1,0.3l-0.1,0.3c-0.2,0.8-0.4,1.4-0.6,2
				c-0.1,0.3-0.3,0.6-0.4,0.9c-0.3,0.6-0.5,1.1-0.9,1.7c-0.2,0.3-0.3,0.5-0.5,0.8c-0.6,0.9-1.2,1.6-1.8,2.2
				C24.3,71.9,20.4,73.6,16.1,73.6C16.2,73.6,16.2,73.6,16.1,73.6z"/>
		</g>
		<g>
			<path d="M140.3,83.4h5.7c1.5,0,2-0.5,2-3V29.5h-7.8c-4.3,0-6.2,0.5-6.4,3.5l-0.5,6.1h-9v-17h61.8v17h-9l-0.5-6.1
				c-0.2-3.1-2.2-3.5-6.6-3.5h-8.2v50.8c0,2.5,0.5,3,2,3h5.7v7.8h-29.1L140.3,83.4L140.3,83.4z"/>
			<path d="M193.6,68.5c0.3,9.5,5,15.7,14.4,15.7c7.2,0,11.3-3.6,13.7-9.8l7.9,3.5c-2.8,8.1-9.7,14.6-22.8,14.6
				c-18.4,0-27.6-11.1-27.6-26.7s10.7-26.6,26.3-26.6s24.8,10,24.8,26.7v2.6L193.6,68.5L193.6,68.5z M193.4,61.4h22.9
				c-0.2-10.3-3.3-14.2-10.7-14.2S194.1,51.5,193.4,61.4z"/>
			<path d="M273.9,51.9c-1.6-3.1-5-4.8-10.8-4.8c-9.4,0-14.4,6-14.4,17.4v1.7c0,11.6,4.6,18,13.9,18c7.4,0,11.9-3.1,14.3-9.9
				l7.8,3.6c-3.1,8.4-9.7,14.7-22.7,14.7c-17.9,0-27.6-9.9-27.6-26.8s10.4-26.5,27.8-26.5c14.5,0,23.3,6.8,23.3,17.2
				c0,6.9-4.3,11.2-10.2,11.2c-4.8,0-8.2-3.3-8.2-7.7S269.7,52.7,273.9,51.9L273.9,51.9z"/>
			<path d="M306.7,49.2c3.2-6.8,9-10,16.9-10c10.8,0,16.4,6.1,16.4,18.7v22.8c0,2.4,0.6,2.7,1.8,2.7h4.6v7.8h-26.2v-7.8h4
				c1.1,0,1.8-0.3,1.8-2.7V58.5c0-7.1-2.5-10.2-8.3-10.2c-7,0-11,5.5-11,16.7v15.6c0,2.4,0.6,2.7,1.8,2.7h4v7.8h-26.2v-7.8h4.6
				c1.1,0,1.8-0.3,1.8-2.7V33.1c0-2.5-0.4-3.1-1.8-3.1H286v-7.8h8.6c5.1,0,9.8-0.5,12.1-1L306.7,49.2L306.7,49.2z"/>
			<path d="M349,65.8c0-16,9.1-26.6,22.7-26.6c8.5,0,14.2,3.6,17.1,10.2V33.1c0-2.5-0.4-3.1-1.8-3.1h-4.9v-7.8h8.6
				c5.1,0,9.8-0.5,12-1v59.5c0,2.4,0.6,2.7,1.8,2.7h4.4v7.8h-18.6c-0.2-1.2-0.5-5.7-0.7-9.9c-2.9,7-8.7,11.2-17.9,11.2
				C358,92.5,349,81.9,349,65.8L349,65.8z M388.8,66.6v-1.6c0-11.2-5.2-17-12.6-17s-12.7,5.8-12.7,17v1.6c0,11.2,5,17,12.7,17
				S388.8,78,388.8,66.6z"/>
			<path d="M411.8,83.4h4.7c1.1,0,1.7-0.5,1.7-2.7V52.5c0-3.2-0.5-4.2-2.3-4.2h-4v-7.8h8.3c5.1,0,9.8-0.5,12.2-1v41.2
				c0,2.2,0.5,2.7,1.7,2.7h4.4v7.8h-26.5V83.4L411.8,83.4z M416.4,27.4c0-4.7,3.4-8.5,8.7-8.5s8.7,3.9,8.7,8.5s-3.6,8.5-8.7,8.5
				S416.4,32,416.4,27.4z"/>
			<path d="M440.2,102.1c0-5.2,4.9-8.3,13.4-9.9c-7.2-1.2-10.9-4.9-10.9-10.5c0-4.9,3.3-8.6,9.4-10.3c-5.1-2.9-7.9-7.6-7.9-14
				c0-10.9,10.3-18.2,24.3-18.2c6.2,0,11.7,1.5,15.9,4c1-6.8,4.4-11.2,10.3-11.2c4.3,0,7.3,2.8,7.3,6.7s-2.6,6.5-6,6.5
				c-2.8,0-4.7-1.3-5.5-3.8c-1.1,1-2.2,2.8-2.7,4.6c2.9,3,4.6,6.9,4.6,11.3c0,11.2-9.7,17.7-24.4,17.7c-4.3,0-8.1-0.4-11.3-1.5
				c-2.4,0.5-3.2,1.7-3.2,3.3c0,2.8,1.7,3.7,6.6,3.7c4.7,0,18-0.2,22.1-0.2c11.6,0,16,5.9,16,14.3c0,11.5-10.6,17.9-30.5,17.9
				S440.2,109,440.2,102.1L440.2,102.1z M458.2,93.6c-4.7,1.3-7,4.1-7,7.5c0,4.1,5.3,5.7,16.9,5.7c12.6,0,19.3-2.6,19.3-7.8
				c0-4.3-2.4-5.4-9.5-5.4L458.2,93.6L458.2,93.6z M477.9,58v-1.5c0-7.1-3.2-10.6-9.7-10.6s-10,3.6-10,10.7v1.5
				c0,6.7,3.4,10.3,9.7,10.3S477.9,64.7,477.9,58L477.9,58z"/>
			<path d="M514.5,68.5c0.3,9.5,5,15.7,14.5,15.7c7.2,0,11.3-3.6,13.7-9.8l7.9,3.5c-2.8,8.1-9.7,14.6-22.8,14.6
				c-18.4,0-27.6-11.1-27.6-26.7s10.7-26.6,26.3-26.6c15.6,0,24.8,10,24.8,26.7v2.6L514.5,68.5L514.5,68.5z M514.3,61.4h22.9
				c-0.2-10.3-3.3-14.2-10.7-14.2S514.9,51.5,514.3,61.4z"/>
			<path d="M555.5,74.7h10.6v9.3c2,0.6,5.1,1,9.1,1c6,0,10.1-2,10.1-6.8s-5.1-6.2-12-7.5c-8.9-1.7-18.1-4.4-18.1-15.2
				c0-9.9,8-16.5,22.5-16.5c7.3,0,15.3,2.3,18.9,4v13.4h-10.6v-8.7c-1.2-0.6-5-1.2-7.9-1.2c-6.2,0-9.9,2.4-9.9,6.4
				c0,5.1,5.2,5.7,11.8,7c9,1.8,18.2,4.5,18.2,15.5c0,10.2-8.4,16.9-22.9,16.9c-7.7,0-15-2.2-20-4.2L555.5,74.7L555.5,74.7z"/>
			<path d="M607.2,76.7V48.3h-6.9v-7l4-0.3c3.5-0.6,5.8-2,6.2-5.7l1-9.1h9.7v14.3h10.1v7.8h-10.4v28.2c0,5.5,2,7.4,6.4,7.4
				c2.2,0,3.5-0.4,4.8-0.8v8c-2,0.6-5.4,1.3-9,1.3C611.7,92.4,607.2,88,607.2,76.7L607.2,76.7z"/>
		</g>
		<rect x="514.4" y="100.9" class="st1" width="115" height="13.2"/>
		<circle class="st1" cx="424.9" cy="27.7" r="9.2"/>
	</g>
</g>
</svg>
